<mxfile host="app.diagrams.net" agent="Mozilla/5.0 (Windows NT 10.0; Win64; x64) AppleWebKit/537.36 (KHTML, like Gecko) Chrome/130.0.0.0 Safari/537.36" version="24.8.2">
  <diagram id="uAUSS5AuCfC497PnXvrO" name="Page-1">
    <mxGraphModel dx="6400" dy="1631" grid="1" gridSize="10" guides="1" tooltips="1" connect="1" arrows="1" fold="1" page="1" pageScale="1" pageWidth="850" pageHeight="1100" math="0" shadow="0">
      <root>
        <mxCell id="0" />
        <mxCell id="1" parent="0" />
        <mxCell id="HZ-TQ83FuogPrPlQnaqr-115" style="edgeStyle=orthogonalEdgeStyle;rounded=0;orthogonalLoop=1;jettySize=auto;html=1;exitX=0.5;exitY=1;exitDx=0;exitDy=0;entryX=0.5;entryY=0;entryDx=0;entryDy=0;" parent="1" source="HZ-TQ83FuogPrPlQnaqr-70" target="HZ-TQ83FuogPrPlQnaqr-110" edge="1">
          <mxGeometry relative="1" as="geometry" />
        </mxCell>
        <mxCell id="HZ-TQ83FuogPrPlQnaqr-70" value="Introduction to Number Theory" style="swimlane;fillColor=#dae8fc;strokeColor=#6c8ebf;" parent="1" vertex="1">
          <mxGeometry x="-1360" y="1080" width="397" height="200" as="geometry" />
        </mxCell>
        <mxCell id="HZ-TQ83FuogPrPlQnaqr-71" value="Elementary Number Theory&lt;br&gt;&lt;b&gt;David Burton&lt;/b&gt;" style="rounded=0;whiteSpace=wrap;html=1;fillColor=#dae8fc;strokeColor=#6c8ebf;" parent="HZ-TQ83FuogPrPlQnaqr-70" vertex="1">
          <mxGeometry x="109" y="40" width="165" height="60" as="geometry" />
        </mxCell>
        <mxCell id="HZ-TQ83FuogPrPlQnaqr-72" value="Elementary Number Theory with Applications&lt;br&gt;&lt;b&gt;Thomas Koshy&lt;/b&gt;" style="rounded=0;whiteSpace=wrap;html=1;fillColor=#dae8fc;strokeColor=#6c8ebf;" parent="HZ-TQ83FuogPrPlQnaqr-70" vertex="1">
          <mxGeometry x="20" y="120" width="165" height="60" as="geometry" />
        </mxCell>
        <mxCell id="HZ-TQ83FuogPrPlQnaqr-73" value="&lt;div&gt;Elementary Number Theory&lt;/div&gt;&lt;div&gt;&lt;b&gt;Kenneth H. Rosen&lt;/b&gt;&lt;/div&gt;" style="rounded=0;whiteSpace=wrap;html=1;fillColor=#dae8fc;strokeColor=#6c8ebf;" parent="HZ-TQ83FuogPrPlQnaqr-70" vertex="1">
          <mxGeometry x="200" y="120" width="170" height="61" as="geometry" />
        </mxCell>
        <mxCell id="HZ-TQ83FuogPrPlQnaqr-132" style="edgeStyle=orthogonalEdgeStyle;rounded=0;orthogonalLoop=1;jettySize=auto;html=1;exitX=0.5;exitY=1;exitDx=0;exitDy=0;entryX=0.5;entryY=0;entryDx=0;entryDy=0;" parent="1" source="HZ-TQ83FuogPrPlQnaqr-110" target="HZ-TQ83FuogPrPlQnaqr-127" edge="1">
          <mxGeometry relative="1" as="geometry" />
        </mxCell>
        <mxCell id="XHwMdBdWKg2Phqc04OuS-14" style="edgeStyle=orthogonalEdgeStyle;rounded=0;orthogonalLoop=1;jettySize=auto;html=1;exitX=0;exitY=0.5;exitDx=0;exitDy=0;" parent="1" source="HZ-TQ83FuogPrPlQnaqr-110" target="XHwMdBdWKg2Phqc04OuS-8" edge="1">
          <mxGeometry relative="1" as="geometry" />
        </mxCell>
        <mxCell id="XHwMdBdWKg2Phqc04OuS-176" style="edgeStyle=orthogonalEdgeStyle;rounded=0;orthogonalLoop=1;jettySize=auto;html=1;exitX=0;exitY=0.25;exitDx=0;exitDy=0;entryX=1;entryY=0.25;entryDx=0;entryDy=0;" parent="1" source="HZ-TQ83FuogPrPlQnaqr-110" target="XHwMdBdWKg2Phqc04OuS-162" edge="1">
          <mxGeometry relative="1" as="geometry" />
        </mxCell>
        <mxCell id="XHwMdBdWKg2Phqc04OuS-187" style="edgeStyle=orthogonalEdgeStyle;rounded=0;orthogonalLoop=1;jettySize=auto;html=1;exitX=0.25;exitY=0;exitDx=0;exitDy=0;entryX=0.5;entryY=0;entryDx=0;entryDy=0;" parent="1" source="HZ-TQ83FuogPrPlQnaqr-110" target="XHwMdBdWKg2Phqc04OuS-178" edge="1">
          <mxGeometry relative="1" as="geometry">
            <Array as="points">
              <mxPoint x="-1242" y="1360" />
              <mxPoint x="-2605" y="1360" />
            </Array>
          </mxGeometry>
        </mxCell>
        <mxCell id="HZ-TQ83FuogPrPlQnaqr-110" value="Introduction to Abstract Algebra" style="swimlane;fillColor=#dae8fc;strokeColor=#6c8ebf;" parent="1" vertex="1">
          <mxGeometry x="-1322.25" y="1400" width="321.5" height="200" as="geometry" />
        </mxCell>
        <mxCell id="HZ-TQ83FuogPrPlQnaqr-111" value="Contemporary Abstract Algebra&lt;br&gt;&lt;b&gt;Joseph A. Gallian&lt;/b&gt;" style="rounded=0;whiteSpace=wrap;html=1;fillColor=#dae8fc;strokeColor=#6c8ebf;" parent="HZ-TQ83FuogPrPlQnaqr-110" vertex="1">
          <mxGeometry x="11.5" y="40" width="140" height="60" as="geometry" />
        </mxCell>
        <mxCell id="HZ-TQ83FuogPrPlQnaqr-112" value="Algebra Abstract and Concrete&lt;br&gt;&lt;b&gt;Frederick Goodman&lt;/b&gt;" style="rounded=0;whiteSpace=wrap;html=1;fillColor=#dae8fc;strokeColor=#6c8ebf;" parent="HZ-TQ83FuogPrPlQnaqr-110" vertex="1">
          <mxGeometry x="11.5" y="120" width="140" height="60" as="geometry" />
        </mxCell>
        <mxCell id="HZ-TQ83FuogPrPlQnaqr-113" value="A First Course in Abstract Algebra&lt;br&gt;&lt;b&gt;Joseph J. Rotman&lt;/b&gt;" style="rounded=0;whiteSpace=wrap;html=1;fillColor=#dae8fc;strokeColor=#6c8ebf;" parent="HZ-TQ83FuogPrPlQnaqr-110" vertex="1">
          <mxGeometry x="173.5" y="120" width="136.5" height="60" as="geometry" />
        </mxCell>
        <mxCell id="HZ-TQ83FuogPrPlQnaqr-114" value="Algebra&lt;br&gt;&lt;b&gt;Michael Artin&lt;/b&gt;" style="rounded=0;whiteSpace=wrap;html=1;fillColor=#dae8fc;strokeColor=#6c8ebf;" parent="HZ-TQ83FuogPrPlQnaqr-110" vertex="1">
          <mxGeometry x="169" y="40" width="141" height="60" as="geometry" />
        </mxCell>
        <mxCell id="XHwMdBdWKg2Phqc04OuS-22" style="edgeStyle=orthogonalEdgeStyle;rounded=0;orthogonalLoop=1;jettySize=auto;html=1;exitX=0;exitY=0.75;exitDx=0;exitDy=0;entryX=1;entryY=0.25;entryDx=0;entryDy=0;" parent="1" source="HZ-TQ83FuogPrPlQnaqr-127" target="XHwMdBdWKg2Phqc04OuS-15" edge="1">
          <mxGeometry relative="1" as="geometry" />
        </mxCell>
        <mxCell id="XHwMdBdWKg2Phqc04OuS-34" style="edgeStyle=orthogonalEdgeStyle;rounded=0;orthogonalLoop=1;jettySize=auto;html=1;exitX=0.5;exitY=1;exitDx=0;exitDy=0;entryX=0.5;entryY=0;entryDx=0;entryDy=0;" parent="1" source="HZ-TQ83FuogPrPlQnaqr-127" target="XHwMdBdWKg2Phqc04OuS-24" edge="1">
          <mxGeometry relative="1" as="geometry" />
        </mxCell>
        <mxCell id="XHwMdBdWKg2Phqc04OuS-148" style="edgeStyle=orthogonalEdgeStyle;rounded=0;orthogonalLoop=1;jettySize=auto;html=1;exitX=0.75;exitY=1;exitDx=0;exitDy=0;entryX=0;entryY=0.25;entryDx=0;entryDy=0;" parent="1" source="HZ-TQ83FuogPrPlQnaqr-127" target="HZ-TQ83FuogPrPlQnaqr-153" edge="1">
          <mxGeometry relative="1" as="geometry" />
        </mxCell>
        <mxCell id="HZ-TQ83FuogPrPlQnaqr-127" value="Advanced Linear Algebra" style="swimlane;fillColor=#dae8fc;strokeColor=#6c8ebf;" parent="1" vertex="1">
          <mxGeometry x="-1334.75" y="1720" width="346.5" height="280" as="geometry" />
        </mxCell>
        <mxCell id="HZ-TQ83FuogPrPlQnaqr-128" value="&lt;span&gt;Linear Algebra Done Right&lt;br&gt;&lt;b&gt;Sheldon Axler&lt;/b&gt;&lt;/span&gt;" style="rounded=0;whiteSpace=wrap;html=1;fillColor=#dae8fc;strokeColor=#6c8ebf;" parent="HZ-TQ83FuogPrPlQnaqr-127" vertex="1">
          <mxGeometry x="18" y="40" width="172" height="60" as="geometry" />
        </mxCell>
        <mxCell id="HZ-TQ83FuogPrPlQnaqr-129" value="&lt;span&gt;Linear Algebra&lt;br&gt;&lt;b&gt;Serge Lang&lt;/b&gt;&lt;/span&gt;" style="rounded=0;whiteSpace=wrap;html=1;fillColor=#dae8fc;strokeColor=#6c8ebf;" parent="HZ-TQ83FuogPrPlQnaqr-127" vertex="1">
          <mxGeometry x="210" y="40" width="120" height="60" as="geometry" />
        </mxCell>
        <mxCell id="HZ-TQ83FuogPrPlQnaqr-130" value="Finite-Dimensional Vector Spaces&lt;br&gt;&lt;b&gt;Paul R. Halmos&lt;/b&gt;&lt;br&gt;" style="rounded=0;whiteSpace=wrap;html=1;fillColor=#dae8fc;strokeColor=#6c8ebf;" parent="HZ-TQ83FuogPrPlQnaqr-127" vertex="1">
          <mxGeometry x="18" y="120" width="160" height="60" as="geometry" />
        </mxCell>
        <mxCell id="HZ-TQ83FuogPrPlQnaqr-133" value="Linear Algebra Done Wrong&lt;br&gt;&lt;b&gt;Sergei Treil&lt;/b&gt;" style="rounded=0;whiteSpace=wrap;html=1;fillColor=#dae8fc;strokeColor=#6c8ebf;" parent="HZ-TQ83FuogPrPlQnaqr-127" vertex="1">
          <mxGeometry x="194.75" y="120" width="135.25" height="60" as="geometry" />
        </mxCell>
        <mxCell id="HZ-TQ83FuogPrPlQnaqr-137" value="Linear Algebra&lt;br&gt;&lt;b&gt;Georgi E. Shilov &amp;amp; Richard A. Silverman&lt;/b&gt;" style="rounded=0;whiteSpace=wrap;html=1;fillColor=#dae8fc;strokeColor=#6c8ebf;" parent="HZ-TQ83FuogPrPlQnaqr-127" vertex="1">
          <mxGeometry x="72.25" y="200" width="202" height="60" as="geometry" />
        </mxCell>
        <mxCell id="XHwMdBdWKg2Phqc04OuS-160" style="edgeStyle=orthogonalEdgeStyle;rounded=0;orthogonalLoop=1;jettySize=auto;html=1;exitX=0.5;exitY=1;exitDx=0;exitDy=0;entryX=0.5;entryY=0;entryDx=0;entryDy=0;" parent="1" source="HZ-TQ83FuogPrPlQnaqr-147" target="XHwMdBdWKg2Phqc04OuS-1" edge="1">
          <mxGeometry relative="1" as="geometry" />
        </mxCell>
        <mxCell id="HZ-TQ83FuogPrPlQnaqr-147" value="Introduction to Functional Analysis" style="swimlane;fillColor=#dae8fc;strokeColor=#6c8ebf;" parent="1" vertex="1">
          <mxGeometry x="-926.5" y="2440" width="325" height="120" as="geometry" />
        </mxCell>
        <mxCell id="HZ-TQ83FuogPrPlQnaqr-148" value="Introductory Functional Analysis with Applications&lt;br&gt;&lt;b&gt;Erwin Kreyszig&lt;/b&gt;" style="rounded=0;whiteSpace=wrap;html=1;fillColor=#dae8fc;strokeColor=#6c8ebf;" parent="HZ-TQ83FuogPrPlQnaqr-147" vertex="1">
          <mxGeometry x="13.5" y="40" width="145" height="60" as="geometry" />
        </mxCell>
        <mxCell id="HZ-TQ83FuogPrPlQnaqr-150" value="&lt;div&gt;Principles of Functional Analysis&lt;/div&gt;&lt;div&gt;&lt;b&gt;Martin Schechter&lt;/b&gt;&lt;/div&gt;" style="rounded=0;whiteSpace=wrap;html=1;fillColor=#dae8fc;strokeColor=#6c8ebf;" parent="HZ-TQ83FuogPrPlQnaqr-147" vertex="1">
          <mxGeometry x="169" y="40" width="141" height="60" as="geometry" />
        </mxCell>
        <mxCell id="XHwMdBdWKg2Phqc04OuS-159" style="edgeStyle=orthogonalEdgeStyle;rounded=0;orthogonalLoop=1;jettySize=auto;html=1;exitX=0.5;exitY=1;exitDx=0;exitDy=0;entryX=0.5;entryY=0;entryDx=0;entryDy=0;" parent="1" source="HZ-TQ83FuogPrPlQnaqr-153" target="HZ-TQ83FuogPrPlQnaqr-147" edge="1">
          <mxGeometry relative="1" as="geometry" />
        </mxCell>
        <mxCell id="TdLw2zF5TJnS2Xj7bHxv-1" style="edgeStyle=orthogonalEdgeStyle;rounded=0;orthogonalLoop=1;jettySize=auto;html=1;exitX=1;exitY=0.5;exitDx=0;exitDy=0;entryX=0;entryY=0.5;entryDx=0;entryDy=0;" parent="1" source="HZ-TQ83FuogPrPlQnaqr-153" target="XHwMdBdWKg2Phqc04OuS-133" edge="1">
          <mxGeometry relative="1" as="geometry" />
        </mxCell>
        <mxCell id="TdLw2zF5TJnS2Xj7bHxv-2" style="edgeStyle=orthogonalEdgeStyle;rounded=0;orthogonalLoop=1;jettySize=auto;html=1;exitX=1;exitY=0.75;exitDx=0;exitDy=0;entryX=0;entryY=0.5;entryDx=0;entryDy=0;" parent="1" source="HZ-TQ83FuogPrPlQnaqr-153" target="XHwMdBdWKg2Phqc04OuS-188" edge="1">
          <mxGeometry relative="1" as="geometry" />
        </mxCell>
        <mxCell id="HZ-TQ83FuogPrPlQnaqr-153" value="Introduction to Mathematical Analysis" style="swimlane;fillColor=#dae8fc;strokeColor=#6c8ebf;" parent="1" vertex="1">
          <mxGeometry x="-932.5" y="2040" width="337" height="280" as="geometry" />
        </mxCell>
        <mxCell id="HZ-TQ83FuogPrPlQnaqr-154" value="Principles of Mathematical Analysis&lt;br&gt;&lt;b&gt;Walter Rudin&lt;/b&gt;" style="rounded=0;whiteSpace=wrap;html=1;fillColor=#dae8fc;strokeColor=#6c8ebf;" parent="HZ-TQ83FuogPrPlQnaqr-153" vertex="1">
          <mxGeometry x="19" y="40" width="162" height="60" as="geometry" />
        </mxCell>
        <mxCell id="HZ-TQ83FuogPrPlQnaqr-155" value="Mathematical Analysis&lt;br&gt;&lt;b&gt;Tom Apostol&lt;/b&gt;" style="rounded=0;whiteSpace=wrap;html=1;fillColor=#dae8fc;strokeColor=#6c8ebf;" parent="HZ-TQ83FuogPrPlQnaqr-153" vertex="1">
          <mxGeometry x="18.5" y="120" width="120" height="60" as="geometry" />
        </mxCell>
        <mxCell id="HZ-TQ83FuogPrPlQnaqr-156" value="Methods of Real Analysis&lt;br&gt;&lt;b&gt;Richard R. Goldberg&lt;/b&gt;" style="rounded=0;whiteSpace=wrap;html=1;fillColor=#dae8fc;strokeColor=#6c8ebf;" parent="HZ-TQ83FuogPrPlQnaqr-153" vertex="1">
          <mxGeometry x="154" y="120" width="164" height="60" as="geometry" />
        </mxCell>
        <mxCell id="HZ-TQ83FuogPrPlQnaqr-157" value="The Elements of Real Analysis&lt;br&gt;&lt;b&gt;Robert G. Bartle&lt;/b&gt;" style="rounded=0;whiteSpace=wrap;html=1;fillColor=#dae8fc;strokeColor=#6c8ebf;" parent="HZ-TQ83FuogPrPlQnaqr-153" vertex="1">
          <mxGeometry x="191.5" y="40" width="133" height="60" as="geometry" />
        </mxCell>
        <mxCell id="HZ-TQ83FuogPrPlQnaqr-158" value="Advanced Calculus of Several Variables&lt;br&gt;&lt;b&gt;C. H. Edwards Jr.&lt;/b&gt;" style="rounded=0;whiteSpace=wrap;html=1;fillColor=#dae8fc;strokeColor=#6c8ebf;" parent="HZ-TQ83FuogPrPlQnaqr-153" vertex="1">
          <mxGeometry x="18" y="200" width="140" height="60" as="geometry" />
        </mxCell>
        <mxCell id="HZ-TQ83FuogPrPlQnaqr-159" value="Calculus and Analysis in Euclidean Space&lt;br&gt;&lt;b&gt;Jerry Shurman&lt;/b&gt;" style="rounded=0;whiteSpace=wrap;html=1;fillColor=#dae8fc;strokeColor=#6c8ebf;" parent="HZ-TQ83FuogPrPlQnaqr-153" vertex="1">
          <mxGeometry x="168" y="200" width="152" height="60" as="geometry" />
        </mxCell>
        <mxCell id="XHwMdBdWKg2Phqc04OuS-1" value="Advanced Mathematical Analysis" style="swimlane;fillColor=#dae8fc;strokeColor=#6c8ebf;" parent="1" vertex="1">
          <mxGeometry x="-919.75" y="2680" width="311.5" height="200" as="geometry" />
        </mxCell>
        <mxCell id="XHwMdBdWKg2Phqc04OuS-2" value="Real Analysis&lt;br&gt;&lt;b&gt;H.L. Royden, P.M. Fitzpatrick&lt;/b&gt;" style="rounded=0;whiteSpace=wrap;html=1;fillColor=#dae8fc;strokeColor=#6c8ebf;" parent="XHwMdBdWKg2Phqc04OuS-1" vertex="1">
          <mxGeometry x="170" y="120" width="129.75" height="60" as="geometry" />
        </mxCell>
        <mxCell id="XHwMdBdWKg2Phqc04OuS-3" value="Real Analysis&lt;br&gt;&lt;b&gt;Gerald B. Folland&lt;/b&gt;" style="rounded=0;whiteSpace=wrap;html=1;fillColor=#dae8fc;strokeColor=#6c8ebf;" parent="XHwMdBdWKg2Phqc04OuS-1" vertex="1">
          <mxGeometry x="20.5" y="120" width="129.5" height="60" as="geometry" />
        </mxCell>
        <mxCell id="XHwMdBdWKg2Phqc04OuS-4" value="Real Analysis&lt;br&gt;&lt;b&gt;Elias M. Stein, Rami Shakarch&lt;/b&gt;i" style="rounded=0;whiteSpace=wrap;html=1;fillColor=#dae8fc;strokeColor=#6c8ebf;" parent="XHwMdBdWKg2Phqc04OuS-1" vertex="1">
          <mxGeometry x="20.5" y="40" width="135" height="60" as="geometry" />
        </mxCell>
        <mxCell id="XHwMdBdWKg2Phqc04OuS-5" value="Real and Complex Analysis&lt;br&gt;&lt;b&gt;Walter Rudin&lt;/b&gt;" style="rounded=0;whiteSpace=wrap;html=1;fillColor=#dae8fc;strokeColor=#6c8ebf;" parent="XHwMdBdWKg2Phqc04OuS-1" vertex="1">
          <mxGeometry x="169.75" y="40" width="130" height="60" as="geometry" />
        </mxCell>
        <mxCell id="XHwMdBdWKg2Phqc04OuS-20" style="edgeStyle=orthogonalEdgeStyle;rounded=0;orthogonalLoop=1;jettySize=auto;html=1;exitX=0.5;exitY=1;exitDx=0;exitDy=0;entryX=0.5;entryY=0;entryDx=0;entryDy=0;" parent="1" source="XHwMdBdWKg2Phqc04OuS-8" target="XHwMdBdWKg2Phqc04OuS-15" edge="1">
          <mxGeometry relative="1" as="geometry" />
        </mxCell>
        <mxCell id="XHwMdBdWKg2Phqc04OuS-36" style="edgeStyle=orthogonalEdgeStyle;rounded=0;orthogonalLoop=1;jettySize=auto;html=1;exitX=1;exitY=0.75;exitDx=0;exitDy=0;entryX=0;entryY=0.25;entryDx=0;entryDy=0;" parent="1" source="XHwMdBdWKg2Phqc04OuS-8" target="XHwMdBdWKg2Phqc04OuS-24" edge="1">
          <mxGeometry relative="1" as="geometry">
            <Array as="points">
              <mxPoint x="-1380" y="1910" />
              <mxPoint x="-1380" y="2380" />
            </Array>
          </mxGeometry>
        </mxCell>
        <mxCell id="XHwMdBdWKg2Phqc04OuS-8" value="Motivation for Category Theory" style="swimlane;fillColor=#dae8fc;strokeColor=#6c8ebf;" parent="1" vertex="1">
          <mxGeometry x="-1870" y="1760" width="388" height="200" as="geometry" />
        </mxCell>
        <mxCell id="XHwMdBdWKg2Phqc04OuS-9" value="&lt;span&gt;Conceptual Mathematics&lt;br&gt;&lt;b&gt;F. William Lawvere, Stephen H. Schanuel&lt;/b&gt;&lt;/span&gt;" style="rounded=0;whiteSpace=wrap;html=1;fillColor=#dae8fc;strokeColor=#6c8ebf;" parent="XHwMdBdWKg2Phqc04OuS-8" vertex="1">
          <mxGeometry x="110" y="40" width="160" height="60" as="geometry" />
        </mxCell>
        <mxCell id="XHwMdBdWKg2Phqc04OuS-10" value="&lt;span&gt;Sets for Mathematics&lt;br&gt;&lt;b&gt;F.W. Lawvere, R. Rosebrugh&lt;/b&gt;&lt;/span&gt;" style="rounded=0;whiteSpace=wrap;html=1;fillColor=#dae8fc;strokeColor=#6c8ebf;" parent="XHwMdBdWKg2Phqc04OuS-8" vertex="1">
          <mxGeometry x="12" y="120" width="130" height="60" as="geometry" />
        </mxCell>
        <mxCell id="XHwMdBdWKg2Phqc04OuS-11" value="&lt;span&gt;Arrows Structures and Functors: The Categorical Imperative&lt;br&gt;&lt;b&gt;Michael A. Arbib&lt;/b&gt;&lt;/span&gt;" style="rounded=0;whiteSpace=wrap;html=1;fillColor=#dae8fc;strokeColor=#6c8ebf;" parent="XHwMdBdWKg2Phqc04OuS-8" vertex="1">
          <mxGeometry x="160" y="120" width="215" height="60" as="geometry" />
        </mxCell>
        <mxCell id="XHwMdBdWKg2Phqc04OuS-15" value="Introduction to Category Theory" style="swimlane;fillColor=#dae8fc;strokeColor=#6c8ebf;" parent="1" vertex="1">
          <mxGeometry x="-1846" y="2080" width="340" height="250" as="geometry" />
        </mxCell>
        <mxCell id="XHwMdBdWKg2Phqc04OuS-16" value="&lt;span&gt;Category Theory&lt;br&gt;&lt;b&gt;Steve Awodey&lt;/b&gt;&lt;/span&gt;" style="rounded=0;whiteSpace=wrap;html=1;fillColor=#dae8fc;strokeColor=#6c8ebf;" parent="XHwMdBdWKg2Phqc04OuS-15" vertex="1">
          <mxGeometry x="22" y="40" width="120" height="60" as="geometry" />
        </mxCell>
        <mxCell id="XHwMdBdWKg2Phqc04OuS-17" value="&lt;span&gt;Basic Category Theory&lt;br&gt;&lt;b&gt;Tom Leinster&lt;/b&gt;&lt;/span&gt;" style="rounded=0;whiteSpace=wrap;html=1;fillColor=#dae8fc;strokeColor=#6c8ebf;" parent="XHwMdBdWKg2Phqc04OuS-15" vertex="1">
          <mxGeometry x="22" y="110" width="120" height="60" as="geometry" />
        </mxCell>
        <mxCell id="XHwMdBdWKg2Phqc04OuS-18" value="&lt;span&gt;Abstract and Concrete Categories The Joy of Cats&lt;br&gt;&lt;b&gt;Jiri Adamek&lt;/b&gt;&lt;/span&gt;" style="rounded=0;whiteSpace=wrap;html=1;fillColor=#dae8fc;strokeColor=#6c8ebf;" parent="XHwMdBdWKg2Phqc04OuS-15" vertex="1">
          <mxGeometry x="160" y="110" width="160" height="60" as="geometry" />
        </mxCell>
        <mxCell id="XHwMdBdWKg2Phqc04OuS-19" value="&lt;span&gt;Category Theory: A Gentle Introduction&lt;br&gt;&lt;b&gt;Peter Smith&lt;/b&gt;&lt;/span&gt;" style="rounded=0;whiteSpace=wrap;html=1;fillColor=#dae8fc;strokeColor=#6c8ebf;" parent="XHwMdBdWKg2Phqc04OuS-15" vertex="1">
          <mxGeometry x="90" y="180" width="160" height="60" as="geometry" />
        </mxCell>
        <mxCell id="XHwMdBdWKg2Phqc04OuS-21" value="Category Theory in Context&lt;br&gt;&lt;b&gt;Emily Riehl&lt;/b&gt;" style="rounded=0;whiteSpace=wrap;html=1;fillColor=#dae8fc;strokeColor=#6c8ebf;" parent="XHwMdBdWKg2Phqc04OuS-15" vertex="1">
          <mxGeometry x="160" y="40" width="160" height="60" as="geometry" />
        </mxCell>
        <mxCell id="XHwMdBdWKg2Phqc04OuS-76" style="edgeStyle=orthogonalEdgeStyle;rounded=0;orthogonalLoop=1;jettySize=auto;html=1;exitX=0.5;exitY=1;exitDx=0;exitDy=0;entryX=0.5;entryY=0;entryDx=0;entryDy=0;" parent="1" source="XHwMdBdWKg2Phqc04OuS-24" target="XHwMdBdWKg2Phqc04OuS-73" edge="1">
          <mxGeometry relative="1" as="geometry" />
        </mxCell>
        <mxCell id="XHwMdBdWKg2Phqc04OuS-24" value="Advanced Abstract Algebra" style="swimlane;fillColor=#dae8fc;strokeColor=#6c8ebf;" parent="1" vertex="1">
          <mxGeometry x="-1328" y="2270" width="333" height="440" as="geometry" />
        </mxCell>
        <mxCell id="XHwMdBdWKg2Phqc04OuS-25" value="&lt;span&gt;Algebra&lt;br&gt;&lt;b&gt;Thomas Hungerford&lt;/b&gt;&lt;/span&gt;" style="rounded=0;whiteSpace=wrap;html=1;fillColor=#dae8fc;strokeColor=#6c8ebf;" parent="XHwMdBdWKg2Phqc04OuS-24" vertex="1">
          <mxGeometry x="23" y="40" width="134" height="60" as="geometry" />
        </mxCell>
        <mxCell id="XHwMdBdWKg2Phqc04OuS-26" value="&lt;span&gt;Abstract Algebra&lt;br&gt;&lt;b&gt;David S. Dummit, Richard M. Foote&lt;/b&gt;&lt;/span&gt;" style="rounded=0;whiteSpace=wrap;html=1;fillColor=#dae8fc;strokeColor=#6c8ebf;" parent="XHwMdBdWKg2Phqc04OuS-24" vertex="1">
          <mxGeometry x="170" y="40" width="138" height="60" as="geometry" />
        </mxCell>
        <mxCell id="XHwMdBdWKg2Phqc04OuS-27" value="&lt;span&gt;Advanced Modern Algebra&lt;br&gt;&lt;b&gt;Joseph J. Rotman&lt;/b&gt;&lt;/span&gt;" style="rounded=0;whiteSpace=wrap;html=1;fillColor=#dae8fc;strokeColor=#6c8ebf;" parent="XHwMdBdWKg2Phqc04OuS-24" vertex="1">
          <mxGeometry x="21" y="120" width="138" height="60" as="geometry" />
        </mxCell>
        <mxCell id="XHwMdBdWKg2Phqc04OuS-28" value="&lt;span&gt;Algebra&lt;br&gt;&lt;b&gt;Serge Lang&lt;/b&gt;&lt;/span&gt;" style="rounded=0;whiteSpace=wrap;html=1;fillColor=#dae8fc;strokeColor=#6c8ebf;" parent="XHwMdBdWKg2Phqc04OuS-24" vertex="1">
          <mxGeometry x="21" y="280" width="134" height="60" as="geometry" />
        </mxCell>
        <mxCell id="XHwMdBdWKg2Phqc04OuS-29" value="&lt;span&gt;Algebra: A Graduate Course&lt;br&gt;&lt;b&gt;I. Martin Isaacs&lt;/b&gt;&lt;/span&gt;" style="rounded=0;whiteSpace=wrap;html=1;fillColor=#dae8fc;strokeColor=#6c8ebf;" parent="XHwMdBdWKg2Phqc04OuS-24" vertex="1">
          <mxGeometry x="168" y="120" width="140" height="60" as="geometry" />
        </mxCell>
        <mxCell id="XHwMdBdWKg2Phqc04OuS-30" value="&lt;span&gt;Algebra: Chapter 0&lt;br&gt;&lt;b&gt;Paolo Aluffi&lt;/b&gt;&lt;/span&gt;" style="rounded=0;whiteSpace=wrap;html=1;fillColor=#dae8fc;strokeColor=#6c8ebf;" parent="XHwMdBdWKg2Phqc04OuS-24" vertex="1">
          <mxGeometry x="171.5" y="280" width="135" height="60" as="geometry" />
        </mxCell>
        <mxCell id="XHwMdBdWKg2Phqc04OuS-31" value="Algebra&lt;br&gt;&lt;b&gt;Paul M. Cohn&lt;/b&gt;" style="rounded=0;whiteSpace=wrap;html=1;fillColor=#dae8fc;strokeColor=#6c8ebf;" parent="XHwMdBdWKg2Phqc04OuS-24" vertex="1">
          <mxGeometry x="21" y="200" width="139" height="60" as="geometry" />
        </mxCell>
        <mxCell id="XHwMdBdWKg2Phqc04OuS-32" value="A Course in Algebra &lt;b&gt;E.B. Vinberg&lt;/b&gt;" style="rounded=0;whiteSpace=wrap;html=1;fillColor=#dae8fc;strokeColor=#6c8ebf;" parent="XHwMdBdWKg2Phqc04OuS-24" vertex="1">
          <mxGeometry x="173" y="200" width="135" height="60" as="geometry" />
        </mxCell>
        <mxCell id="XHwMdBdWKg2Phqc04OuS-33" value="Introduction to Commutative Algebra&lt;br&gt;&lt;b&gt;M. F. Atiyah &amp;amp; I. G. MacDonald&lt;/b&gt;" style="rounded=0;whiteSpace=wrap;html=1;fillColor=#dae8fc;strokeColor=#6c8ebf;" parent="XHwMdBdWKg2Phqc04OuS-24" vertex="1">
          <mxGeometry x="72" y="360" width="190" height="60" as="geometry" />
        </mxCell>
        <mxCell id="XHwMdBdWKg2Phqc04OuS-73" value="Algebraic Number Theory" style="swimlane;fillColor=#dae8fc;strokeColor=#6c8ebf;" parent="1" vertex="1">
          <mxGeometry x="-1311.5" y="2840" width="300" height="200" as="geometry" />
        </mxCell>
        <mxCell id="XHwMdBdWKg2Phqc04OuS-74" value="&lt;div&gt;An Introduction to the Theory of Numbers&lt;/div&gt;&lt;div&gt;&lt;b&gt;Ivan Niven, Herbert S. Zuckerman, Hugh L. Montgomery&lt;/b&gt;&lt;/div&gt;" style="rounded=0;whiteSpace=wrap;html=1;fillColor=#dae8fc;strokeColor=#6c8ebf;" parent="XHwMdBdWKg2Phqc04OuS-73" vertex="1">
          <mxGeometry x="17" y="120" width="260" height="60" as="geometry" />
        </mxCell>
        <mxCell id="XHwMdBdWKg2Phqc04OuS-75" value="&lt;div&gt;Number Fields&lt;/div&gt;&lt;div&gt;&lt;b&gt;Daniel A. Marcus&lt;/b&gt;&lt;/div&gt;" style="rounded=0;whiteSpace=wrap;html=1;fillColor=#dae8fc;strokeColor=#6c8ebf;" parent="XHwMdBdWKg2Phqc04OuS-73" vertex="1">
          <mxGeometry x="90" y="40" width="120" height="60" as="geometry" />
        </mxCell>
        <mxCell id="XHwMdBdWKg2Phqc04OuS-132" style="edgeStyle=orthogonalEdgeStyle;rounded=0;orthogonalLoop=1;jettySize=auto;html=1;exitX=0.5;exitY=1;exitDx=0;exitDy=0;entryX=0.5;entryY=0;entryDx=0;entryDy=0;" parent="1" source="XHwMdBdWKg2Phqc04OuS-133" target="XHwMdBdWKg2Phqc04OuS-139" edge="1">
          <mxGeometry relative="1" as="geometry" />
        </mxCell>
        <mxCell id="XHwMdBdWKg2Phqc04OuS-133" value="Introduction to Optimization Theory" style="swimlane;fillColor=#dae8fc;strokeColor=#6c8ebf;" parent="1" vertex="1">
          <mxGeometry x="-460" y="2041" width="430" height="277" as="geometry" />
        </mxCell>
        <mxCell id="XHwMdBdWKg2Phqc04OuS-134" value="A First Course in Optimization Theory&lt;br&gt;&lt;b&gt;Rangarajan K. Sundaram&lt;/b&gt;&lt;br&gt;" style="rounded=0;whiteSpace=wrap;html=1;fillColor=#dae8fc;strokeColor=#6c8ebf;" parent="XHwMdBdWKg2Phqc04OuS-133" vertex="1">
          <mxGeometry x="19" y="40" width="181" height="60" as="geometry" />
        </mxCell>
        <mxCell id="XHwMdBdWKg2Phqc04OuS-135" value="Introduction to Linear Optimization&lt;br&gt;&lt;b&gt;Dimitris Bertsimas. John N. Tsitsiklis&lt;/b&gt;&lt;br&gt;" style="rounded=0;whiteSpace=wrap;html=1;fillColor=#dae8fc;strokeColor=#6c8ebf;" parent="XHwMdBdWKg2Phqc04OuS-133" vertex="1">
          <mxGeometry x="210" y="40" width="201.5" height="60" as="geometry" />
        </mxCell>
        <mxCell id="XHwMdBdWKg2Phqc04OuS-136" value="Applied Optimization&lt;br&gt;&lt;b&gt;Ross Baldick&lt;/b&gt;&lt;br&gt;" style="rounded=0;whiteSpace=wrap;html=1;fillColor=#dae8fc;strokeColor=#6c8ebf;" parent="XHwMdBdWKg2Phqc04OuS-133" vertex="1">
          <mxGeometry x="18" y="118.5" width="164" height="60" as="geometry" />
        </mxCell>
        <mxCell id="XHwMdBdWKg2Phqc04OuS-137" value="An Introduction to Optimization&lt;br&gt;&lt;b&gt;Edwin K.P. Chong, Stanislaw H. Zak&lt;/b&gt;&lt;br&gt;" style="rounded=0;whiteSpace=wrap;html=1;fillColor=#dae8fc;strokeColor=#6c8ebf;" parent="XHwMdBdWKg2Phqc04OuS-133" vertex="1">
          <mxGeometry x="100" y="198.5" width="221" height="60" as="geometry" />
        </mxCell>
        <mxCell id="XHwMdBdWKg2Phqc04OuS-138" value="Practical Optimization&lt;br&gt;&lt;b&gt;Philip E. Gill, Walter Murray, Margaret H. Wright&lt;/b&gt;" style="rounded=0;whiteSpace=wrap;html=1;fillColor=#dae8fc;strokeColor=#6c8ebf;" parent="XHwMdBdWKg2Phqc04OuS-133" vertex="1">
          <mxGeometry x="231.5" y="118.5" width="180" height="60" as="geometry" />
        </mxCell>
        <mxCell id="XHwMdBdWKg2Phqc04OuS-139" value="Convex Optimization" style="swimlane;fillColor=#dae8fc;strokeColor=#6c8ebf;startSize=23;" parent="1" vertex="1">
          <mxGeometry x="-443" y="2400.5" width="396" height="196" as="geometry" />
        </mxCell>
        <mxCell id="XHwMdBdWKg2Phqc04OuS-140" value="Convex Optimization Theory&lt;br&gt;&lt;b&gt;Dimitri P. Bertsekas&lt;/b&gt;&lt;br&gt;" style="rounded=0;whiteSpace=wrap;html=1;fillColor=#dae8fc;strokeColor=#6c8ebf;" parent="XHwMdBdWKg2Phqc04OuS-139" vertex="1">
          <mxGeometry x="19" y="40" width="162" height="60" as="geometry" />
        </mxCell>
        <mxCell id="XHwMdBdWKg2Phqc04OuS-141" value="Convex Optimization&lt;br&gt;&lt;b&gt;Stephen Boyd, Lieven Vandenberghe&lt;/b&gt;&lt;br&gt;" style="rounded=0;whiteSpace=wrap;html=1;fillColor=#dae8fc;strokeColor=#6c8ebf;" parent="XHwMdBdWKg2Phqc04OuS-139" vertex="1">
          <mxGeometry x="200" y="40" width="171" height="60" as="geometry" />
        </mxCell>
        <mxCell id="XHwMdBdWKg2Phqc04OuS-142" value="Convex Analysis and Nonlinear Optimization&lt;br&gt;&lt;b&gt;Jonathan M. Borwein, Adrian S. Lewis&lt;/b&gt;&lt;br&gt;" style="rounded=0;whiteSpace=wrap;html=1;fillColor=#dae8fc;strokeColor=#6c8ebf;" parent="XHwMdBdWKg2Phqc04OuS-139" vertex="1">
          <mxGeometry x="18" y="118.5" width="164" height="60" as="geometry" />
        </mxCell>
        <mxCell id="XHwMdBdWKg2Phqc04OuS-143" value="Foundations of Optimization&lt;br&gt;&lt;b&gt;Osman Güler&lt;/b&gt;&lt;br&gt;" style="rounded=0;whiteSpace=wrap;html=1;fillColor=#dae8fc;strokeColor=#6c8ebf;" parent="XHwMdBdWKg2Phqc04OuS-139" vertex="1">
          <mxGeometry x="204" y="118.5" width="164" height="60" as="geometry" />
        </mxCell>
        <mxCell id="XHwMdBdWKg2Phqc04OuS-161" style="edgeStyle=orthogonalEdgeStyle;rounded=0;orthogonalLoop=1;jettySize=auto;html=1;exitX=0.5;exitY=1;exitDx=0;exitDy=0;" parent="1" source="XHwMdBdWKg2Phqc04OuS-162" target="XHwMdBdWKg2Phqc04OuS-168" edge="1">
          <mxGeometry relative="1" as="geometry" />
        </mxCell>
        <mxCell id="XHwMdBdWKg2Phqc04OuS-162" value="Algebraic Topology Motivation" style="swimlane;fillColor=#dae8fc;strokeColor=#6c8ebf;" parent="1" vertex="1">
          <mxGeometry x="-2300" y="1400" width="302" height="267" as="geometry" />
        </mxCell>
        <mxCell id="XHwMdBdWKg2Phqc04OuS-163" value="Invitation to Combinatorial Topology&lt;br&gt;&lt;b&gt;Maurice Frechet and Ky Fan&lt;/b&gt;" style="rounded=0;whiteSpace=wrap;html=1;fillColor=#dae8fc;strokeColor=#6c8ebf;" parent="XHwMdBdWKg2Phqc04OuS-162" vertex="1">
          <mxGeometry x="26" y="40" width="254" height="60" as="geometry" />
        </mxCell>
        <mxCell id="XHwMdBdWKg2Phqc04OuS-164" value="Basic Concepts of Algebraic Topology&lt;br&gt;&lt;b&gt;Fred H. Croom&lt;/b&gt;" style="rounded=0;whiteSpace=wrap;html=1;fillColor=#dae8fc;strokeColor=#6c8ebf;" parent="XHwMdBdWKg2Phqc04OuS-162" vertex="1">
          <mxGeometry x="26" y="114.5" width="120" height="60" as="geometry" />
        </mxCell>
        <mxCell id="XHwMdBdWKg2Phqc04OuS-165" value="Basic Topology&lt;br&gt;&lt;b&gt;M.A. Armstrong&lt;/b&gt;" style="rounded=0;whiteSpace=wrap;html=1;fillColor=#dae8fc;strokeColor=#6c8ebf;" parent="XHwMdBdWKg2Phqc04OuS-162" vertex="1">
          <mxGeometry x="158" y="114.5" width="120" height="60" as="geometry" />
        </mxCell>
        <mxCell id="XHwMdBdWKg2Phqc04OuS-166" value="Topology&lt;br&gt;&lt;b&gt;John G. Hocking, Gail S. Young&lt;/b&gt;" style="rounded=0;whiteSpace=wrap;html=1;fillColor=#dae8fc;strokeColor=#6c8ebf;" parent="XHwMdBdWKg2Phqc04OuS-162" vertex="1">
          <mxGeometry x="26" y="189.5" width="120" height="60" as="geometry" />
        </mxCell>
        <mxCell id="XHwMdBdWKg2Phqc04OuS-167" value="Topology &lt;br&gt;&lt;b&gt;Klaus Janich&lt;/b&gt;" style="rounded=0;whiteSpace=wrap;html=1;fillColor=#dae8fc;strokeColor=#6c8ebf;" parent="XHwMdBdWKg2Phqc04OuS-162" vertex="1">
          <mxGeometry x="158" y="189.5" width="120" height="60" as="geometry" />
        </mxCell>
        <mxCell id="XHwMdBdWKg2Phqc04OuS-168" value="Introduction to Algebraic Topology" style="swimlane;fillColor=#dae8fc;strokeColor=#6c8ebf;" parent="1" vertex="1">
          <mxGeometry x="-2300" y="1800" width="302" height="198" as="geometry" />
        </mxCell>
        <mxCell id="XHwMdBdWKg2Phqc04OuS-169" value="Algebraic Topology: An Introduction&lt;br&gt;&lt;b&gt;William Massey&lt;/b&gt;" style="rounded=0;whiteSpace=wrap;html=1;fillColor=#dae8fc;strokeColor=#6c8ebf;" parent="XHwMdBdWKg2Phqc04OuS-168" vertex="1">
          <mxGeometry x="20" y="39.5" width="120" height="60" as="geometry" />
        </mxCell>
        <mxCell id="XHwMdBdWKg2Phqc04OuS-170" value="Algebraic Topology&lt;br&gt;&lt;b&gt;Allen Hatcher&lt;/b&gt;" style="rounded=0;whiteSpace=wrap;html=1;fillColor=#dae8fc;strokeColor=#6c8ebf;" parent="XHwMdBdWKg2Phqc04OuS-168" vertex="1">
          <mxGeometry x="166" y="39.5" width="120" height="60" as="geometry" />
        </mxCell>
        <mxCell id="XHwMdBdWKg2Phqc04OuS-171" value="Elements of Algebraic Topology&lt;br&gt;&lt;b&gt;James Munkres&lt;/b&gt;" style="rounded=0;whiteSpace=wrap;html=1;fillColor=#dae8fc;strokeColor=#6c8ebf;" parent="XHwMdBdWKg2Phqc04OuS-168" vertex="1">
          <mxGeometry x="158" y="114.5" width="128" height="60" as="geometry" />
        </mxCell>
        <mxCell id="XHwMdBdWKg2Phqc04OuS-172" value="A first course in Algebraic Topology&lt;br&gt;&lt;b&gt;C. Kosniowski&lt;/b&gt;" style="rounded=0;whiteSpace=wrap;html=1;fillColor=#dae8fc;strokeColor=#6c8ebf;" parent="XHwMdBdWKg2Phqc04OuS-168" vertex="1">
          <mxGeometry x="20" y="114.5" width="120" height="60" as="geometry" />
        </mxCell>
        <mxCell id="N2863A0XC9Yqkhy7363l-4" value="" style="edgeStyle=orthogonalEdgeStyle;rounded=0;orthogonalLoop=1;jettySize=auto;html=1;" parent="1" source="XHwMdBdWKg2Phqc04OuS-178" target="N2863A0XC9Yqkhy7363l-1" edge="1">
          <mxGeometry relative="1" as="geometry" />
        </mxCell>
        <mxCell id="XHwMdBdWKg2Phqc04OuS-178" value="Algebraic Geometry Motivation" style="swimlane;fillColor=#dae8fc;strokeColor=#6c8ebf;" parent="1" vertex="1">
          <mxGeometry x="-2770" y="1400" width="330" height="120" as="geometry" />
        </mxCell>
        <mxCell id="XHwMdBdWKg2Phqc04OuS-183" value="Introduction to Algebraic Geometry&lt;br&gt;&lt;b&gt;Brendan Hassett&lt;/b&gt;" style="rounded=0;whiteSpace=wrap;html=1;fillColor=#dae8fc;strokeColor=#6c8ebf;" parent="XHwMdBdWKg2Phqc04OuS-178" vertex="1">
          <mxGeometry x="178.5" y="40" width="140" height="60" as="geometry" />
        </mxCell>
        <mxCell id="XHwMdBdWKg2Phqc04OuS-184" value="Ideals Varieties and Algorithms&lt;br&gt;&lt;b&gt;David A. Cox, John Little, Donal O&#39;Shea&lt;/b&gt;" style="rounded=0;whiteSpace=wrap;html=1;fillColor=#dae8fc;strokeColor=#6c8ebf;" parent="XHwMdBdWKg2Phqc04OuS-178" vertex="1">
          <mxGeometry x="11.5" y="40" width="157" height="63" as="geometry" />
        </mxCell>
        <mxCell id="N2863A0XC9Yqkhy7363l-1" value="Introduction to Algebraic Geometry" style="swimlane;fillColor=#dae8fc;strokeColor=#6c8ebf;" parent="1" vertex="1">
          <mxGeometry x="-2755" y="1640" width="300" height="250" as="geometry" />
        </mxCell>
        <mxCell id="N2863A0XC9Yqkhy7363l-2" value="A Royal Road to Algebraic Geometry&lt;br&gt;&lt;b&gt;Audune Holme&lt;/b&gt;" style="rounded=0;whiteSpace=wrap;html=1;fillColor=#dae8fc;strokeColor=#6c8ebf;" parent="N2863A0XC9Yqkhy7363l-1" vertex="1">
          <mxGeometry x="150" y="40" width="140" height="60" as="geometry" />
        </mxCell>
        <mxCell id="N2863A0XC9Yqkhy7363l-3" value="Basic Algebraic Geometry&lt;br&gt;&lt;b&gt;Igor R. Shafarevich&lt;/b&gt;" style="rounded=0;whiteSpace=wrap;html=1;fillColor=#dae8fc;strokeColor=#6c8ebf;" parent="N2863A0XC9Yqkhy7363l-1" vertex="1">
          <mxGeometry x="11.5" y="40" width="128.5" height="60" as="geometry" />
        </mxCell>
        <mxCell id="N2863A0XC9Yqkhy7363l-8" value="Algebraic Geometry: A First Course&lt;br&gt;&lt;b&gt;Joe Harris&lt;/b&gt;" style="rounded=0;whiteSpace=wrap;html=1;fillColor=#dae8fc;strokeColor=#6c8ebf;" parent="N2863A0XC9Yqkhy7363l-1" vertex="1">
          <mxGeometry x="11.5" y="110" width="118.5" height="60" as="geometry" />
        </mxCell>
        <mxCell id="N2863A0XC9Yqkhy7363l-9" value="Elementary Algebraic Geometry&lt;br&gt;&lt;b&gt;Keith Kendig&lt;/b&gt;" style="rounded=0;whiteSpace=wrap;html=1;fillColor=#dae8fc;strokeColor=#6c8ebf;" parent="N2863A0XC9Yqkhy7363l-1" vertex="1">
          <mxGeometry x="150" y="110" width="139.25" height="60" as="geometry" />
        </mxCell>
        <mxCell id="N2863A0XC9Yqkhy7363l-16" value="Introduction to Algebraic Geometry&lt;br&gt;&lt;b&gt;Justin R. Smith&lt;/b&gt;" style="rounded=0;whiteSpace=wrap;html=1;fillColor=#dae8fc;strokeColor=#6c8ebf;" parent="N2863A0XC9Yqkhy7363l-1" vertex="1">
          <mxGeometry x="80.38000000000011" y="180" width="139.25" height="60" as="geometry" />
        </mxCell>
        <mxCell id="TdLw2zF5TJnS2Xj7bHxv-11" style="edgeStyle=orthogonalEdgeStyle;rounded=0;orthogonalLoop=1;jettySize=auto;html=1;exitX=0.5;exitY=1;exitDx=0;exitDy=0;entryX=0.5;entryY=0;entryDx=0;entryDy=0;" parent="1" source="XHwMdBdWKg2Phqc04OuS-188" target="TdLw2zF5TJnS2Xj7bHxv-5" edge="1">
          <mxGeometry relative="1" as="geometry" />
        </mxCell>
        <mxCell id="XHwMdBdWKg2Phqc04OuS-188" value="Introduction to Differential Geometry" style="swimlane;fillColor=#dae8fc;strokeColor=#6c8ebf;" parent="1" vertex="1">
          <mxGeometry x="-430" y="2720" width="370" height="270" as="geometry" />
        </mxCell>
        <mxCell id="XHwMdBdWKg2Phqc04OuS-189" value="A Differential Approach to Geometry&lt;br&gt;&lt;b&gt;Francis Borceux&lt;/b&gt;" style="rounded=0;whiteSpace=wrap;html=1;fillColor=#dae8fc;strokeColor=#6c8ebf;" parent="XHwMdBdWKg2Phqc04OuS-188" vertex="1">
          <mxGeometry x="20" y="42.5" width="160" height="60" as="geometry" />
        </mxCell>
        <mxCell id="XHwMdBdWKg2Phqc04OuS-190" value="Differential Geometry of Curves and Surfaces&lt;br&gt;&lt;b&gt;Kristopher Tapp&lt;/b&gt;" style="rounded=0;whiteSpace=wrap;html=1;fillColor=#dae8fc;strokeColor=#6c8ebf;" parent="XHwMdBdWKg2Phqc04OuS-188" vertex="1">
          <mxGeometry x="190" y="42.5" width="160" height="60" as="geometry" />
        </mxCell>
        <mxCell id="XHwMdBdWKg2Phqc04OuS-192" value="Differential Geometery of Curves and Surfaces&lt;br&gt;&lt;b&gt;Manfredo P. Do Carmo&lt;/b&gt;" style="rounded=0;whiteSpace=wrap;html=1;fillColor=#dae8fc;strokeColor=#6c8ebf;" parent="XHwMdBdWKg2Phqc04OuS-188" vertex="1">
          <mxGeometry x="20" y="114" width="160" height="60" as="geometry" />
        </mxCell>
        <mxCell id="TdLw2zF5TJnS2Xj7bHxv-3" value="Elementary Differential Geometry&lt;br&gt;&lt;b&gt;Barrett O&#39;Neill&lt;/b&gt;" style="rounded=0;whiteSpace=wrap;html=1;fillColor=#dae8fc;strokeColor=#6c8ebf;" parent="XHwMdBdWKg2Phqc04OuS-188" vertex="1">
          <mxGeometry x="190" y="114" width="160" height="60" as="geometry" />
        </mxCell>
        <mxCell id="TdLw2zF5TJnS2Xj7bHxv-4" value="Elementary Differential Geometry&lt;br&gt;&lt;b&gt;Andrew Pressley&lt;/b&gt;" style="rounded=0;whiteSpace=wrap;html=1;fillColor=#dae8fc;strokeColor=#6c8ebf;" parent="XHwMdBdWKg2Phqc04OuS-188" vertex="1">
          <mxGeometry x="105" y="190" width="160" height="60" as="geometry" />
        </mxCell>
        <mxCell id="TdLw2zF5TJnS2Xj7bHxv-5" value="Advanced Differential Geometry" style="swimlane;fillColor=#dae8fc;strokeColor=#6c8ebf;startSize=23;" parent="1" vertex="1">
          <mxGeometry x="-430" y="3120" width="370" height="270" as="geometry" />
        </mxCell>
        <mxCell id="TdLw2zF5TJnS2Xj7bHxv-6" value="Manifolds, Tensors and Forms&lt;br&gt;&lt;b&gt;Paul Renteln&lt;/b&gt;" style="rounded=0;whiteSpace=wrap;html=1;fillColor=#dae8fc;strokeColor=#6c8ebf;" parent="TdLw2zF5TJnS2Xj7bHxv-5" vertex="1">
          <mxGeometry x="20" y="42.5" width="160" height="60" as="geometry" />
        </mxCell>
        <mxCell id="TdLw2zF5TJnS2Xj7bHxv-7" value="An Introduction to Differentiable Manifolds and Riemannian Geometry&lt;br&gt;&lt;b&gt;William M. Boothby&lt;/b&gt;" style="rounded=0;whiteSpace=wrap;html=1;fillColor=#dae8fc;strokeColor=#6c8ebf;" parent="TdLw2zF5TJnS2Xj7bHxv-5" vertex="1">
          <mxGeometry x="190" y="42.5" width="160" height="60" as="geometry" />
        </mxCell>
        <mxCell id="TdLw2zF5TJnS2Xj7bHxv-8" value="Introduction to Smooth Manifolds&lt;br&gt;&lt;b&gt;John M. Lee&lt;/b&gt;" style="rounded=0;whiteSpace=wrap;html=1;fillColor=#dae8fc;strokeColor=#6c8ebf;" parent="TdLw2zF5TJnS2Xj7bHxv-5" vertex="1">
          <mxGeometry x="20" y="114" width="160" height="60" as="geometry" />
        </mxCell>
        <mxCell id="TdLw2zF5TJnS2Xj7bHxv-9" value="A Comprehensive Introduction to Differential Geometry&lt;br&gt;&lt;b&gt;Michael Spivak&lt;/b&gt;" style="rounded=0;whiteSpace=wrap;html=1;fillColor=#dae8fc;strokeColor=#6c8ebf;" parent="TdLw2zF5TJnS2Xj7bHxv-5" vertex="1">
          <mxGeometry x="190" y="114" width="160" height="60" as="geometry" />
        </mxCell>
        <mxCell id="TdLw2zF5TJnS2Xj7bHxv-10" value="First Steps in Differential Geometry&lt;br&gt;&lt;b&gt;Andrew Mclnerney&lt;/b&gt;" style="rounded=0;whiteSpace=wrap;html=1;fillColor=#dae8fc;strokeColor=#6c8ebf;" parent="TdLw2zF5TJnS2Xj7bHxv-5" vertex="1">
          <mxGeometry x="105" y="190" width="160" height="60" as="geometry" />
        </mxCell>
      </root>
    </mxGraphModel>
  </diagram>
</mxfile>
